<?xml version="1.0" encoding="utf-8"?>
<!-- Generator: Adobe Illustrator 24.1.3, SVG Export Plug-In . SVG Version: 6.00 Build 0)  -->
<svg version="1.1" id="Layer_1" xmlns="http://www.w3.org/2000/svg" xmlns:xlink="http://www.w3.org/1999/xlink" x="0px" y="0px"
	 viewBox="0 0 700 700" style="enable-background:new 0 0 700 700;" xml:space="preserve">
<g>
	<path d="M321.1,142.2c1.1,1.1,1.7,2.2,1.1,3.9l-4.5,23c-1.1,5.6,5,10.1,9.5,7.3l20.7-11.8c1.1-0.6,2.8-0.6,3.9,0l20.7,11.8
		c5,2.8,11.2-1.7,9.5-7.3l-5-23c-0.6-1.1,0-2.8,1.1-3.9l17.4-16.2c4.5-3.9,1.7-10.6-3.9-11.8l-23.5-2.8c-1.7,0-2.8-1.1-3.4-2.2
		l-10.1-21.8c-2.2-5-9.5-5-12.3,0l-10.1,21.8c-0.6,1.1-1.7,2.2-3.4,2.2l-23.5,2.8c-5.6,0.6-7.8,7.8-3.9,11.8L321.1,142.2z"/>
	<path d="M159.3,224.6l23.5-1.1c1.7,0,2.8,0.6,3.4,1.7l12.9,19.6c3.4,4.5,10.6,3.4,11.8-1.7l6.2-23c0.6-1.1,1.7-2.2,2.8-2.8l23-6.2
		c5.6-1.7,6.7-9,1.7-11.8l-19.6-12.9c-1.1-0.6-1.7-2.2-1.7-3.4l1.1-23.5c0-5.6-6.2-9-10.6-5.6l-18.5,14.6c-1.1,1.1-2.8,1.1-3.9,0.6
		l-22.4-8.4c-5.6-2.2-10.6,3.4-8.4,8.4l8.4,22.4c0.6,1.1,0,2.8-0.6,3.9l-14.6,18.5C149.8,217.8,153.1,224.6,159.3,224.6L159.3,224.6
		z"/>
	<path d="M176.6,372.4l-11.8-20.7c-0.6-1.1-0.6-2.8,0-3.9l11.8-20.2c2.8-5-1.7-11.2-7.3-9.5l-23,5c-1.1,0-2.8,0-3.9-1.1l-16.2-18.5
		c-3.9-4.5-10.6-1.7-11.8,3.9l-2.8,23.5c0,1.1-1.1,2.8-2.2,3.4l-21.8,10.1c-5,2.2-5,9.5,0,12.3l21.8,9.5c1.1,0.6,2.2,1.7,2.2,3.4
		l2.8,23.5c0.6,5.6,7.8,7.8,11.8,3.9l16.2-17.4c1.1-1.1,2.2-1.7,3.9-1.1l23.5,4.5C175,383.6,179.4,377.4,176.6,372.4L176.6,372.4z"
		/>
	<path d="M243.3,488.9l-23-6.2c-1.1-0.6-2.2-1.7-2.8-2.8l-6.2-23c-1.7-5.6-9-6.7-11.8-1.7l-12.9,19.6c-0.6,1.1-2.2,1.7-3.4,1.7
		l-23.5-1.1c-5.6,0-9,6.2-5.6,10.6l14.6,18.5c1.1,1.1,1.1,2.8,0.6,3.9l-8.4,22.4c-2.2,5.6,3.4,10.6,8.4,8.4l22.4-8.4
		c1.1-0.6,2.8,0,3.9,0.6l18.5,14.6c4.5,3.4,11.2,0,10.6-5.6l-1.1-23.5c0-1.7,0.6-2.8,1.7-3.4l19.6-12.9
		C250,497.8,248.9,490.6,243.3,488.9L243.3,488.9z"/>
	<path d="M379.4,557.8c-1.1-1.1-1.7-2.2-1.1-3.9l4.5-23.5c1.1-5.6-5-10.1-9.5-7.3l-20.7,11.8c-1.1,0.6-2.8,0.6-3.9,0l-20.7-11.2
		c-5-2.8-11.2,1.7-9.5,7.3l5,23c0.6,1.1,0,2.8-1.1,3.9L303.8,574c-4.5,3.9-1.7,10.6,3.9,11.8l23.5,2.8c1.1,0,2.8,1.1,3.4,2.2
		l10.1,21.8c2.2,5,9.5,5,12.3,0l10.1-21.8c0.6-1.1,1.7-2.2,3.4-2.2l23.5-2.8c5.6-0.6,7.8-7.8,3.9-11.8L379.4,557.8z"/>
	<path d="M541.2,475.4l-23.5,1.1c-1.7,0-2.8-0.6-3.4-1.7l-12.9-19.6c-3.4-5-10.6-3.4-11.8,1.7l-6.2,23c-0.6,1.1-1.7,2.2-2.8,2.8
		l-23,6.2c-5.6,1.7-6.7,9-1.7,11.8l19.6,12.9c1.1,0.6,1.7,2.2,1.7,3.4l-1.1,23.5c0,5.6,6.2,9,10.6,5.6l18.5-14.6
		c1.1-1.1,2.8-1.1,3.9-0.6l22.4,8.4c5.6,2.2,10.6-3.4,8.4-8.4l-8.4-22.4c-0.6-1.1,0-2.8,0.6-3.9l14.6-18.5
		C550.7,482.2,547.4,475.4,541.2,475.4L541.2,475.4z"/>
	<path d="M612.3,343.8l-21.8-9.5c-1.1-0.6-2.2-1.7-2.2-3.4l-2.8-23.5c-0.6-5.6-7.8-7.8-11.8-3.9l-16.2,17.4
		c-1.1,1.1-2.2,1.7-3.9,1.1l-23.5-4.5c-5.6-1.1-10.1,5-7.3,9.5l11.8,20.7c0.6,1.1,0.6,2.8,0,3.9l-10.6,20.7c-2.8,5,1.7,11.2,7.3,9.5
		l23-5c1.1-0.6,2.8,0,3.9,1.1l16.2,17.4c3.9,4.5,10.6,1.7,11.8-3.9l2.8-23.5c0-1.1,1.1-2.8,2.2-3.4l21.8-10.1
		C617.4,353.9,617.4,346.1,612.3,343.8L612.3,343.8z"/>
	<path d="M457.2,211.1l23,6.2c1.1,0.6,2.2,1.7,2.8,2.8l6.2,23c1.7,5.6,9,6.7,11.8,1.7l12.9-19.6c0.6-1.1,2.2-1.7,3.4-1.7l23.5,1.1
		c5.6,0,9-6.2,5.6-10.6l-14.6-18.5c-1.1-1.1-1.1-2.8-0.6-3.9l8.4-22.4c2.2-5.6-3.4-10.6-8.4-8.4l-22.4,8.4c-1.1,0.6-2.8,0-3.9-0.6
		L486.3,154c-4.5-3.4-11.2,0-10.6,5.6l1.1,23.5c0,1.7-0.6,2.8-1.7,3.4l-19.6,12.9C450.5,202.2,451.6,209.4,457.2,211.1L457.2,211.1z
		"/>
	<path d="M478.5,417.2l-10.1-31.4c-1.1-2.8,0-6.2,2.2-8.4l24.1-21.8c3.4-3.4,3.4-8.4,0-11.8L470.6,322c-2.2-2.2-3.4-5-2.2-8.4
		l10.1-31.4c1.1-4.5-1.1-9-5.6-10.1l-31.9-7.3c-2.8-0.6-5-2.8-6.2-6.2l-7.3-31.9c-1.1-4.5-5.6-7.3-10.1-5.6l-31.4,10.1
		c-2.8,1.1-6.2,0-8.4-2.2L355.3,205c-3.4-3.4-8.4-3.4-11.8,0L321.1,229c-2.2,2.2-5,3.4-8.4,2.2l-29.7-9.5c-4.5-1.1-9,1.1-10.1,5.6
		l-7.3,31.9c-0.6,2.8-2.8,5-6.2,6.2l-31.9,7.3c-4.5,1.1-7.3,5.6-5.6,10.1l10.1,31.4c1.1,2.8,0,6.2-2.2,8.4l-24.1,21.8
		c-3.4,3.4-3.4,8.4,0,11.8l24.1,21.8c2.2,2.2,3.4,5,2.2,8.4L222,417.2c-1.1,4.5,1.1,9,5.6,10.1l31.9,7.3c2.8,0.6,5,2.8,6.2,6.2
		l7.3,31.9c1.1,4.5,5.6,7.3,10.1,5.6l31.4-10.1c2.8-1.1,6.2,0,8.4,2.2l22.4,24.1c3.4,3.4,8.4,3.4,11.8,0l21.8-24.1
		c2.2-2.2,5-3.4,8.4-2.2l31.4,10.1c4.5,1.1,9-1.1,10.1-5.6l7.3-31.9c0.6-2.8,2.8-5,6.2-6.2l31.9-7.3
		C477.4,426.2,479.6,421.7,478.5,417.2L478.5,417.2z M403.4,334.9l-54.3,54.3c-3.4,3.4-7.3,4.5-11.2,4.5c-3.9,0-8.4-1.7-11.2-4.5
		l-29.1-28c-6.2-6.2-6.2-16.2,0-22.4c6.2-6.2,16.2-6.2,22.4,0l17.4,17.4l43.1-43.1c6.2-6.2,16.2-6.2,22.4,0
		C409.6,318.6,409.6,328.7,403.4,334.9L403.4,334.9z"/>
</g>
</svg>
