<?xml version="1.0" encoding="utf-8"?>
<!-- Generator: Adobe Illustrator 24.1.3, SVG Export Plug-In . SVG Version: 6.00 Build 0)  -->
<svg version="1.1" id="Layer_1" xmlns="http://www.w3.org/2000/svg" xmlns:xlink="http://www.w3.org/1999/xlink" x="0px" y="0px"
	 viewBox="0 0 700 700" style="enable-background:new 0 0 700 700;" xml:space="preserve">
<g>
	<path d="M315.6,466.9c5.6,0,11.8-1.1,16.8-2.8l-57.7,145c-1.7,4.5-7.8,5-10.1,0.6l-27.4-48.2c-1.1-1.7-2.8-2.2-4.5-1.7l-51.5,16.2
		c-4.5,1.7-9-2.8-6.7-7.3l54.9-137.2c7.3,3.4,15.7,5.6,24.1,5.6c3.4,0,6.7-0.6,10.1-1.1h1.1l0.6,1.1
		C274.7,455.1,294.3,466.9,315.6,466.9L315.6,466.9z M470.7,432.2c-7.3,3.4-15.7,5.6-24.6,5.6c-3.4,0-6.7-0.6-10.1-1.1h-1.1
		l-0.6,1.1c-10.1,18.5-29.7,29.7-50.4,29.7c-5.6,0-11.2-1.1-16.8-2.8l58.2,145.6c1.7,4.5,7.8,5,10.1,0.6l27.4-48.2
		c1.1-1.7,2.8-2.2,4.5-1.7l51.5,16.2c4.5,1.7,9-2.8,6.7-7.3L470.7,432.2z M520.5,241.8c10.6,9.5,10.6,25.8,0,34.7l-6.7,6.2
		c-7.3,6.7-10.1,17.4-6.2,26.3l3.4,8.4c5.6,12.9-1.7,27.4-15.1,31.4l-9,2.2c-9.5,2.8-16.2,11.2-16.8,21.3l-0.6,9
		c-0.6,12.3-11.2,21.8-23,21.8c-1.1,0-2.8,0-3.9-0.6l-9-1.7c-1.1,0-2.8-0.6-3.9-0.6c-8.4,0-16.2,4.5-20.2,11.8l-4.5,7.8
		c-4.5,7.8-12.3,11.8-20.2,11.8c-4.5,0-9.5-1.7-13.4-4.5l-7.3-5.6c-3.9-2.8-9-4.5-13.4-4.5s-9.5,1.7-13.4,4.5l-7.3,5
		c-3.9,2.8-9,4.5-13.4,4.5c-8.4,0-16.2-4.5-20.2-12.3l-4.5-7.8c-3.9-7.8-11.8-12.3-20.2-12.3c-1.1,0-2.8,0-3.9,0.6l-9,1.7
		c-1.1,0-2.8,0.6-3.9,0.6c-12.3,0-22.4-9.5-23-21.8l-2.2-7.8c-0.6-10.1-7.3-18.5-16.8-21.3l-9-2.2c-13.4-3.9-20.2-18.5-15.1-31.4
		l3.4-8.4c3.9-9,1.7-19.6-6.2-26.3l-6.7-6.2c-10.6-9.5-10.6-25.8,0-34.7l6.7-6.2c7.3-6.7,10.1-17.4,6.2-26.3l-3.4-8.4
		c-5.6-12.9,1.7-27.4,15.1-31.4l9-2.2c9.5-2.8,16.2-11.2,16.8-21.3l0.6-9c0.6-12.3,11.2-21.8,23-21.8c1.1,0,2.8,0,3.9,0.6l9,1.7
		c1.1,0,2.8,0.6,3.9,0.6c8.4,0,16.2-4.5,20.2-11.8l4.5-7.8c4.5-7.8,12.3-11.8,20.2-11.8c4.5,0,9.5,1.7,13.4,4.5l7.3,5.6
		c3.9,2.8,9,4.5,13.4,4.5s9.5-1.7,13.4-4.5l7.3-5c3.9-2.8,9-4.5,13.4-4.5c8.4,0,16.2,4.5,20.2,12.3l4.5,7.8
		c3.9,7.8,11.8,12.3,20.2,12.3c1.1,0,2.8,0,3.9-0.6l9-1.7c1.1,0,2.8-0.6,3.9-0.6c12.3,0,22.4,9.5,23,21.8l0.6,9
		c0.6,10.1,7.3,18.5,16.8,21.3l9,2.2c13.4,3.9,20.2,18.5,15.1,31.4l-1.7,7.3c-3.9,9-1.7,19.6,6.2,26.3L520.5,241.8z M336.3,219.4
		c0-5.6,1.1-10.1,3.9-13.4c2.8-3.4,6.7-5,12.3-5c5.6,0,10.1,2.2,13.4,6.2c2.8,3.4,4.5,8.4,5,14.6c0,2.8,2.8,5,5.6,5l28.6-0.6
		c3.4,0,5.6-2.8,5.6-5.6c-0.6-12.3-4.5-23-11.8-31.4c-7.3-9-17.4-14.6-29.7-16.8V151c0-2.8-2.2-5-5-5h-17.4c-2.8,0-5,2.2-5,5v20.7
		c-13.4,1.7-24.1,6.7-31.9,14.6c-9,8.4-13.4,19.6-13.4,33c0,14.6,4.5,25.8,12.9,33.6c8.4,7.8,21.8,15.1,40.9,22.4
		c7.8,3.4,12.9,6.7,16.2,10.1c2.8,3.4,4.5,8.4,4.5,14.6c0,5.6-1.7,9.5-4.5,12.9c-2.8,3.4-7.3,5-12.9,5c-6.7,0-12.3-2.2-16.8-6.7
		c-3.4-3.4-5.6-9-6.2-16.2c0-2.8-2.8-5-5.6-5l-28.6,0.6c-3.4,0-5.6,2.8-5.6,5.6c0.6,15.1,5.6,26.9,14.6,34.7
		c9.5,9,21.8,14,36.4,15.7v19.6c0,2.8,2.2,5,5,5h17.4c2.8,0,5-2.2,5-5v-20.2c11.8-2.2,21.3-6.7,28.6-14c8.4-8.4,12.9-19.6,12.9-33
		c0-14.6-4.5-25.8-12.9-33.6c-8.4-7.8-22.4-15.7-40.3-23.5c-7.8-3.4-13.4-6.7-16.2-10.1C337.4,229.5,336.3,225,336.3,219.4
		L336.3,219.4z"/>
</g>
</svg>
