<?xml version="1.0" encoding="utf-8"?>
<!-- Generator: Adobe Illustrator 24.1.3, SVG Export Plug-In . SVG Version: 6.00 Build 0)  -->
<svg version="1.1" id="Layer_1" xmlns="http://www.w3.org/2000/svg" xmlns:xlink="http://www.w3.org/1999/xlink" x="0px" y="0px"
	 viewBox="0 0 700 700" style="enable-background:new 0 0 700 700;" xml:space="preserve">
<g>
	<path d="M512.5,412.1c-6.7-0.6-20.7,7.3-24.1,9.5c-13.4,7.3-32.5,17.9-44.8,26.9c-1.1,0.6-2.2,1.1-2.8,2.2
		c-5.6,3.9-11.2,6.2-17.9,7.8c-35.8,7.8-87.9,9-87.9,9h-2.8c-2.2,0-4.5-1.7-4.5-3.9c-0.6-2.8,1.7-5,3.9-5l77.3-7.8
		c8.4-1.1,15.1-9.5,14.6-18.5c-1.1-9.5-9-16.2-17.9-15.1l-68.9-1.1c-4.5,0-12.3-1.1-16.8-2.8c-44.2-14-69.4-1.1-82.9,4.5
		c-2.8-5-8.4-8.4-15.1-7.8l-29.7,2.2c-10.1,0.6-17.4,9.5-16.8,19l4.5,68.3c0.6,10.1,9.5,17.4,19,16.8l29.7-2.2
		c6.2-0.6,11.2-4.5,13.4-10.1l130.5,5.6c14.6,1.7,28,0,40.9-7.3l3.9-2.2l98.6-59.9c5-2.8,8.4-7.8,8.4-14
		C525.9,420.5,522,412.7,512.5,412.1L512.5,412.1z M210.7,500c-5.6,0-10.1-4.5-10.1-10.1c0-5.6,4.5-10.1,10.1-10.1
		c5.6,0,10.1,4.5,10.1,10.1S216.3,500,210.7,500z M439.1,435.6V430c0-2.2-0.6-4.5-1.7-6.7v-0.6c10.6-6.2,30.8-16.2,42-20.7
		c5.6-2.2,11.2-2.2,16.2,1.7c-3.9,1.7-7.8,3.4-11.2,5c-11.8,6.2-32.5,17.9-42.6,25.2C441.4,434,440.3,435.1,439.1,435.6L439.1,435.6
		z M424,405.4c6.7-3.9,22.4-9,29.1-11.8c5.6-2.2,10.6-2.2,15.7,1.1c-7.8,3.9-23.5,9.5-30.8,13.4l-5,2.8c-0.6,0-1.1,0.6-1.1,1.1
		C429.6,409.9,426.8,407.6,424,405.4L424,405.4z M282.3,340.4c-1.1,7.8,4.5,15.1,12.3,15.7h5c5.6,0,10.6,3.9,12.3,9.5l1.7,5
		c2.2,7.8,10.6,11.8,17.9,8.4l5-2.2c5-2.2,11.2-1.1,15.1,3.4l3.4,3.9c5.6,6.2,14.6,5.6,20.2,0l3.4-3.9c3.9-4.5,10.1-5.6,15.1-3.4
		l5,2.2c7.3,2.8,15.7-1.1,17.9-9l1.1-5c1.7-5.6,6.2-9.5,11.8-9.5l5-0.6c7.8-0.6,14-7.8,12.3-15.7l-1.1-5.6c-1.1-5.6,1.7-11.2,6.7-14
		l4.5-2.8c6.7-3.9,9-12.9,4.5-19.6l-2.8-4.5c-3.4-4.5-3.4-10.6,0-15.7l2.8-4.5c4.5-6.7,2.2-15.7-4.5-19.6l-4.5-2.2
		c-5-2.8-7.8-8.4-6.7-14l1.1-5c1.1-7.8-4.5-15.1-12.3-15.7h-5c-5.6,0-10.6-3.9-12.3-9.5l-1.7-5c-2.2-7.8-10.6-11.8-17.9-8.4l-5,2.2
		c-5,2.2-11.2,1.1-15.1-3.4l-3.4-3.9c-5.6-6.2-14.6-5.6-20.2,0l-3.4,3.9c-3.9,4.5-10.1,5.6-15.1,3.4l-5-2.2
		c-7.3-2.8-15.7,1.1-17.9,9l-1.1,5c-1.7,5.6-6.2,9.5-11.8,9.5l-5,0.6c-7.8,0.6-14,7.8-12.3,15.7l1.1,5c1.1,5.6-1.7,11.2-6.7,14
		l-4.5,2.8c-6.7,3.9-9,12.9-4.5,19.6l2.8,4.5c3.4,4.5,3.4,10.6,0,15.7l-2.8,4.5c-4.5,6.7-2.2,15.7,4.5,19.6l4.5,2.2
		c5,2.8,7.8,8.4,6.7,14L282.3,340.4z M319.3,268.2l28.6-2.2l10.6-26.3c2.2-5,9-5,11.2,0l10.6,26.3l28.6,2.2
		c5.6,0.6,7.3,7.3,3.4,10.6l-21.8,18.5l6.7,28c1.1,5-4.5,9.5-9,6.7l-24.1-15.1L340,332c-4.5,2.8-10.1-1.1-9-6.7l6.7-28L316,278.8
		C311.5,275.5,313.7,268.8,319.3,268.2L319.3,268.2z"/>
</g>
</svg>
